<svg xmlns="http://www.w3.org/2000/svg" id="Layer_1" width="96" height="96" viewBox="0 0 96 96"><path id="rect5192" d="M 20.800781 0 C 9.2775817 0 6.4370729e-017 9.2775817 0 20.800781 L 0 75.199219 C 0 86.722418 9.2775817 96 20.800781 96 L 75.199219 96 C 86.722418 96 96 86.722418 96 75.199219 L 96 20.800781 C 96 9.2775817 86.722418 6.4370729e-017 75.199219 0 L 20.800781 0 z M 53.544922 22 C 62.366922 22 69.544922 29.178 69.544922 38 C 69.544922 46.822 62.366922 54 53.544922 54 C 44.722922 54 37.544922 46.822 37.544922 38 C 37.544922 29.178 44.722922 22 53.544922 22 z M 53.544922 24 C 45.825922 24 39.544922 30.28 39.544922 38 C 39.544922 45.72 45.824922 52 53.544922 52 C 61.264922 52 67.544922 45.72 67.544922 38 C 67.544922 30.28 61.264922 24 53.544922 24 z M 53.544922 26 C 60.161922 26 65.544922 31.383 65.544922 38 C 65.544922 44.617 60.161922 50 53.544922 50 C 46.928922 50 41.544922 44.617 41.544922 38 C 41.544922 31.383 46.927922 26 53.544922 26 z M 53.544922 27 C 47.479922 27 42.544922 31.935 42.544922 38 C 42.544922 44.065 47.479922 49 53.544922 49 C 59.609922 49 64.544922 44.065 64.544922 38 C 64.544922 31.935 59.609922 27 53.544922 27 z M 49.509766 30 C 49.785766 30 50.009766 30.224 50.009766 30.5 L 50.009766 31 L 52.009766 31 L 52.009766 30.5 C 52.009766 30.224 52.233766 30 52.509766 30 C 52.785766 30 53.009766 30.224 53.009766 30.5 L 53.009766 31 C 55.215766 31 57.009766 32.794 57.009766 35 C 57.009766 35.829 56.756266 36.599281 56.322266 37.238281 C 57.881266 37.785281 59.009766 39.256 59.009766 41 C 59.009766 43.206 57.215766 45 55.009766 45 L 53.009766 45 L 53.009766 45.5 C 53.009766 45.776 52.785766 46 52.509766 46 C 52.233766 46 52.009766 45.776 52.009766 45.5 L 52.009766 45 L 50.009766 45 L 50.009766 45.5 C 50.009766 45.776 49.785766 46 49.509766 46 C 49.233766 46 49.009766 45.776 49.009766 45.5 L 49.009766 44.986328 C 48.492766 44.947328 48.080078 44.527 48.080078 44 C 48.080078 43.496 48.4525 43.078766 48.9375 43.009766 L 48.9375 32.990234 C 48.4535 32.921235 48.080078 32.504 48.080078 32 C 48.080078 31.472 48.492766 31.051672 49.009766 31.013672 L 49.009766 30.5 C 49.009766 30.224 49.233766 30 49.509766 30 z M 51.009766 33 L 51.009766 37 L 53.009766 37 C 54.112766 37 55.009766 36.103 55.009766 35 C 55.009766 33.897 54.112766 33 53.009766 33 L 51.009766 33 z M 51.009766 39 L 51.009766 43 L 55.009766 43 C 56.112766 43 57.009766 42.103 57.009766 41 C 57.009766 39.897 56.112766 39 55.009766 39 L 53.009766 39 L 51.009766 39 z M 23.513672 53 L 32.513672 53 C 33.065672 53 33.513672 53.447 33.513672 54 L 33.513672 55.5 L 42.013672 55.5 C 45.136672 55.5 47.838797 57.536 48.716797 60.5 L 57.013672 60.5 C 58.667672 60.5 60.013672 61.846 60.013672 63.5 C 60.013672 63.805 59.954141 64.093094 59.869141 64.371094 L 69.365234 59.923828 C 70.224235 59.632828 71.979172 59.635266 72.826172 61.572266 C 73.329172 62.911266 72.777125 64.410719 71.578125 65.011719 L 71.25 65.234375 L 54.841797 74.140625 C 53.881797 74.842625 52.638188 75.216797 51.367188 75.216797 C 50.743188 75.216797 50.112812 75.126453 49.507812 74.939453 L 33.513672 69.529297 L 33.513672 71 C 33.513672 71.553 33.065672 72 32.513672 72 L 23.513672 72 C 22.961672 72 22.513672 71.553 22.513672 71 L 22.513672 54 C 22.513672 53.447 22.961672 53 23.513672 53 z M 24.513672 55 L 24.513672 70 L 31.513672 70 L 31.513672 55 L 24.513672 55 z M 33.513672 56.5 L 33.513672 68.472656 L 49.814453 73.988281 C 51.346453 74.459281 53.074547 74.192922 54.310547 73.294922 L 71.076172 64.148438 C 71.865171 63.749437 72.211391 62.777219 71.900391 61.949219 C 71.214391 60.380219 69.795328 60.828609 69.736328 60.849609 L 58.3125 66.205078 C 58.2985 66.211078 58.283531 66.209844 58.269531 66.214844 C 57.885531 66.393844 57.463672 66.5 57.013672 66.5 L 47.484375 66.5 C 47.208375 66.5 46.984375 66.276 46.984375 66 C 46.984375 65.724 47.208375 65.5 47.484375 65.5 L 57.013672 65.5 C 58.116672 65.5 59.013672 64.603 59.013672 63.5 C 59.013672 62.397 58.116672 61.5 57.013672 61.5 L 48.332031 61.5 C 48.100031 61.5 47.898703 61.341234 47.845703 61.115234 C 47.201703 58.397235 44.804672 56.5 42.013672 56.5 L 33.513672 56.5 z "/></svg>